<svg width="49" height="49" viewBox="0 0 49 49" fill="none" xmlns="http://www.w3.org/2000/svg">
<rect width="48" height="48" transform="translate(0.5 0.500031)" fill="#EC8C1F"/>
<path d="M20.425 37.8584C19.65 37.8584 18.8667 37.8584 18.075 37.8584C17.1167 37.85 16.1417 37.925 15.2 37.6417C13.1917 37.0417 11.825 35.7584 11.0917 33.7917C10.85 33.1334 11.1917 32.6 11.9 32.5584C12.3833 32.5334 12.825 32.3917 13.2 32.0917C13.7917 31.6167 14.0333 30.9834 14.0333 30.2334C14.0333 27.775 14.0333 25.3167 14.0333 22.8584C14.0333 17.975 17.0083 14.0417 21.7 12.7C21.7667 12.6834 21.825 12.65 21.8917 12.6167C21.1083 10.8667 21.3833 9.4167 22.65 8.45836C23.8167 7.58336 25.4333 7.63336 26.5333 8.5667C27.525 9.40836 28.0917 11.0334 27.1 12.6917C27.175 12.725 27.2417 12.7584 27.3083 12.7834C31.825 14.2167 34.6667 18.075 34.6917 22.8167C34.7 25.2917 34.6917 27.7584 34.6917 30.2334C34.6917 31.4084 35.325 32.25 36.375 32.5C36.6083 32.5584 36.8667 32.55 37.1083 32.5584C37.825 32.5834 38.1917 33.1167 37.9583 33.7917C37.125 36.1667 34.9333 37.7834 32.4167 37.85C31.275 37.8834 30.1333 37.8584 28.9917 37.8584C28.8667 37.8584 28.7333 37.8584 28.6167 37.8584C27.5833 40.275 26.3667 41.2167 24.35 41.1667C22.5083 41.125 21.225 40.05 20.4 37.8584H20.425ZM25.9417 10.9417C25.9417 10.1584 25.3167 9.52503 24.5333 9.52503C23.7667 9.52503 23.1417 10.15 23.1333 10.9167C23.125 11.7 23.75 12.3417 24.525 12.35C25.3083 12.35 25.9417 11.7334 25.9417 10.9417ZM26.8167 37.8667H22.2917C22.5167 38.7334 23.475 39.4334 24.45 39.4667C25.5083 39.5 26.4917 38.85 26.8167 37.8667Z" fill="white"/>
<path d="M36.9667 20.75C36.5167 20.75 36.2084 20.475 36.0917 19.9834C35.7917 18.7167 35.3084 17.525 34.625 16.4167C34.0334 15.45 33.3084 14.5917 32.4667 13.8167C32.1417 13.5167 32.075 13.1084 32.2667 12.7667C32.45 12.4334 32.8167 12.2584 33.1917 12.3584C33.3417 12.4 33.5 12.4834 33.6167 12.5917C35.7334 14.5334 37.1084 16.9 37.7417 19.7C37.8667 20.2584 37.4834 20.7584 36.9584 20.75H36.9667Z" fill="white"/>
<path d="M15.6167 12.3417C16 12.4167 16.2667 12.575 16.4 12.9C16.55 13.2417 16.4917 13.5667 16.2333 13.8417C16 14.0917 15.7417 14.3167 15.5167 14.5667C14.125 16.0917 13.175 17.85 12.7 19.8584C12.6083 20.2584 12.4417 20.5917 11.9917 20.6834C11.35 20.8167 10.8417 20.3167 10.9833 19.675C11.4583 17.575 12.375 15.6834 13.7417 14.025C14.1417 13.55 14.575 13.1 15.025 12.6667C15.1833 12.5167 15.4167 12.4417 15.6167 12.3334V12.3417Z" fill="white"/>
</svg>
