<svg width="49" height="49" viewBox="0 0 49 49" fill="none" xmlns="http://www.w3.org/2000/svg">
<rect x="0.5" y="0.5" width="48" height="48" fill="#EC8C1F"/>
<path d="M18.2667 12.9C16.1 16.275 15.6 19.8083 16.925 23.5167C17.9833 26.475 20 28.6333 22.8333 30C24.95 31.0167 27.1917 31.3417 29.5167 30.9917C31.8333 30.6417 33.8583 29.6833 35.5917 28.1167C37.3333 26.5417 38.475 24.5917 39.0917 22.225C39.6083 23.3833 40.05 24.45 40.5583 25.4917C40.925 26.2417 41.075 27.0083 41.0583 27.8417C41.025 29.9667 41.05 32.0833 41.05 34.2083C41.05 35.45 40.4083 36.0917 39.1583 36.0917C38.1333 36.0917 37.1167 36.0917 36.0917 36.0917C35.875 36.0917 35.775 36.1583 35.6917 36.35C34.8 38.325 33.25 39.4 31.1 39.3917C28.9667 39.3917 27.4333 38.3 26.5417 36.35C26.45 36.15 26.3583 36.0917 26.1417 36.0917C25.0417 36.1 23.9417 36.1 22.8417 36.0917C22.625 36.0917 22.5333 36.1583 22.4417 36.3583C21.55 38.3083 20.0167 39.3917 17.8833 39.3917C15.7333 39.3917 14.1833 38.3167 13.2917 36.35C13.2 36.15 13.0917 36.1 12.8917 36.0917C10.0417 36.025 7.95001 33.8917 7.94167 31.05C7.93334 26.6917 7.93334 22.3333 7.94167 17.9667C7.94167 15.075 10.1 12.9167 13 12.9083C14.7333 12.9 16.4667 12.9083 18.275 12.9083L18.2667 12.9ZM19.525 34.4333C19.525 33.5333 18.7667 32.7833 17.8667 32.7833C16.9667 32.7833 16.2167 33.5333 16.2083 34.4333C16.2083 35.35 16.9667 36.1083 17.8833 36.1C18.7917 36.0917 19.525 35.3417 19.5167 34.4333H19.525ZM31.1417 36.1C32.0417 36.0917 32.7917 35.3333 32.7833 34.4333C32.7833 33.5333 32.025 32.7833 31.125 32.7833C30.2083 32.7833 29.4583 33.55 29.4667 34.475C29.4833 35.3833 30.2333 36.1083 31.1417 36.1Z" fill="white"/>
<path d="M37.75 19.5333C37.7584 24.9917 33.3167 29.45 27.8334 29.4833C22.3667 29.5167 17.8834 25.0417 17.8834 19.5417C17.8834 14.0583 22.2917 9.62501 27.7917 9.60834C33.2834 9.59167 37.75 14.0333 37.7584 19.5333H37.75ZM26.15 17.8667C26.15 18.4 26.15 18.925 26.15 19.4583C26.15 19.9417 26.3084 20.3667 26.6584 20.7167C27.2084 21.2667 27.7417 21.825 28.3084 22.3583C28.9834 23.0083 30.0084 23 30.6417 22.3583C31.2834 21.7167 31.2834 20.7083 30.6417 20.0167C30.35 19.7083 30.05 19.4 29.7334 19.1167C29.5417 18.9333 29.45 18.75 29.4584 18.475C29.475 17.7667 29.4667 17.05 29.4584 16.3417C29.4584 15.3 28.775 14.575 27.8167 14.5667C26.85 14.5667 26.1584 15.275 26.1417 16.3083C26.1417 16.825 26.1417 17.3417 26.1417 17.8583L26.15 17.8667Z" fill="white"/>
</svg>
